<mxfile host="Electron" modified="2023-06-20T18:35:42.577Z" agent="Mozilla/5.0 (X11; Linux x86_64) AppleWebKit/537.36 (KHTML, like Gecko) draw.io/21.5.0 Chrome/112.0.5615.204 Electron/24.5.1 Safari/537.36" etag="p1pAcH7WK6QJbEhXM1ne" version="21.5.0" type="device">
  <diagram name="Page-1" id="oZowiu_Kfqp32gRZZx8v">
    <mxGraphModel dx="2284" dy="1946" grid="1" gridSize="10" guides="1" tooltips="1" connect="1" arrows="1" fold="1" page="1" pageScale="1" pageWidth="850" pageHeight="1100" math="0" shadow="0">
      <root>
        <mxCell id="0" />
        <mxCell id="1" parent="0" />
        <mxCell id="z0jmMhlCUZg1NA8SBcA4-4" value="Model" style="swimlane;whiteSpace=wrap;html=1;" vertex="1" parent="1">
          <mxGeometry x="140" y="190" width="200" height="200" as="geometry" />
        </mxCell>
        <mxCell id="z0jmMhlCUZg1NA8SBcA4-7" value="virtual void set(const T&amp;amp; t)" style="rounded=0;whiteSpace=wrap;html=1;align=right;" vertex="1" parent="z0jmMhlCUZg1NA8SBcA4-4">
          <mxGeometry y="30" width="190" height="20" as="geometry" />
        </mxCell>
        <mxCell id="z0jmMhlCUZg1NA8SBcA4-13" value="ModelData&amp;amp; get()" style="rounded=0;whiteSpace=wrap;html=1;align=right;" vertex="1" parent="z0jmMhlCUZg1NA8SBcA4-4">
          <mxGeometry y="60" width="190" height="20" as="geometry" />
        </mxCell>
        <mxCell id="z0jmMhlCUZg1NA8SBcA4-15" value="_modelData" style="rounded=0;whiteSpace=wrap;html=1;align=right;" vertex="1" parent="z0jmMhlCUZg1NA8SBcA4-4">
          <mxGeometry y="100" width="190" height="20" as="geometry" />
        </mxCell>
        <mxCell id="z0jmMhlCUZg1NA8SBcA4-31" value="_handler" style="rounded=0;whiteSpace=wrap;html=1;align=right;" vertex="1" parent="z0jmMhlCUZg1NA8SBcA4-4">
          <mxGeometry y="140" width="190" height="20" as="geometry" />
        </mxCell>
        <mxCell id="z0jmMhlCUZg1NA8SBcA4-5" value="Controller" style="swimlane;whiteSpace=wrap;html=1;" vertex="1" parent="1">
          <mxGeometry x="-350" y="460" width="200" height="200" as="geometry" />
        </mxCell>
        <mxCell id="z0jmMhlCUZg1NA8SBcA4-9" value="start" style="rounded=0;whiteSpace=wrap;html=1;align=right;" vertex="1" parent="z0jmMhlCUZg1NA8SBcA4-5">
          <mxGeometry y="40" width="190" height="20" as="geometry" />
        </mxCell>
        <mxCell id="z0jmMhlCUZg1NA8SBcA4-26" value="_model" style="rounded=0;whiteSpace=wrap;html=1;align=right;" vertex="1" parent="z0jmMhlCUZg1NA8SBcA4-5">
          <mxGeometry y="70" width="190" height="20" as="geometry" />
        </mxCell>
        <mxCell id="z0jmMhlCUZg1NA8SBcA4-6" value="View : IView" style="swimlane;whiteSpace=wrap;html=1;" vertex="1" parent="1">
          <mxGeometry x="630" y="20" width="200" height="200" as="geometry" />
        </mxCell>
        <mxCell id="z0jmMhlCUZg1NA8SBcA4-8" value="update" style="rounded=0;whiteSpace=wrap;html=1;align=right;" vertex="1" parent="z0jmMhlCUZg1NA8SBcA4-6">
          <mxGeometry y="70" width="190" height="20" as="geometry" />
        </mxCell>
        <mxCell id="z0jmMhlCUZg1NA8SBcA4-19" value="_model" style="rounded=0;whiteSpace=wrap;html=1;align=right;" vertex="1" parent="z0jmMhlCUZg1NA8SBcA4-6">
          <mxGeometry y="110" width="190" height="20" as="geometry" />
        </mxCell>
        <mxCell id="z0jmMhlCUZg1NA8SBcA4-42" value="View(const Model&amp;amp; ptrModel)" style="rounded=0;whiteSpace=wrap;html=1;align=right;" vertex="1" parent="z0jmMhlCUZg1NA8SBcA4-6">
          <mxGeometry y="40" width="190" height="20" as="geometry" />
        </mxCell>
        <mxCell id="z0jmMhlCUZg1NA8SBcA4-16" style="edgeStyle=orthogonalEdgeStyle;rounded=0;orthogonalLoop=1;jettySize=auto;html=1;entryX=0;entryY=0.5;entryDx=0;entryDy=0;" edge="1" parent="1" source="z0jmMhlCUZg1NA8SBcA4-11" target="z0jmMhlCUZg1NA8SBcA4-15">
          <mxGeometry relative="1" as="geometry">
            <Array as="points">
              <mxPoint x="60" y="125" />
              <mxPoint x="60" y="300" />
            </Array>
          </mxGeometry>
        </mxCell>
        <mxCell id="z0jmMhlCUZg1NA8SBcA4-11" value="ModelData" style="swimlane;whiteSpace=wrap;html=1;" vertex="1" parent="1">
          <mxGeometry x="60" y="20" width="200" height="70" as="geometry" />
        </mxCell>
        <mxCell id="z0jmMhlCUZg1NA8SBcA4-25" value="update" style="rounded=0;whiteSpace=wrap;html=1;align=right;" vertex="1" parent="z0jmMhlCUZg1NA8SBcA4-11">
          <mxGeometry y="30" width="190" height="20" as="geometry" />
        </mxCell>
        <mxCell id="z0jmMhlCUZg1NA8SBcA4-21" style="edgeStyle=orthogonalEdgeStyle;rounded=0;orthogonalLoop=1;jettySize=auto;html=1;entryX=0;entryY=0.5;entryDx=0;entryDy=0;" edge="1" parent="1" source="z0jmMhlCUZg1NA8SBcA4-7" target="z0jmMhlCUZg1NA8SBcA4-22">
          <mxGeometry relative="1" as="geometry">
            <mxPoint x="362.79999999999995" y="208.3499999999999" as="targetPoint" />
          </mxGeometry>
        </mxCell>
        <mxCell id="z0jmMhlCUZg1NA8SBcA4-22" value="{&lt;br&gt;_modelData-&amp;gt;set(t)&lt;br&gt;_handler-&amp;gt;update();&lt;br&gt;}" style="rounded=0;whiteSpace=wrap;html=1;align=left;" vertex="1" parent="1">
          <mxGeometry x="350" y="200" width="210" height="60" as="geometry" />
        </mxCell>
        <mxCell id="z0jmMhlCUZg1NA8SBcA4-30" style="edgeStyle=orthogonalEdgeStyle;rounded=0;orthogonalLoop=1;jettySize=auto;html=1;entryX=0;entryY=0.5;entryDx=0;entryDy=0;" edge="1" parent="1" source="z0jmMhlCUZg1NA8SBcA4-28" target="z0jmMhlCUZg1NA8SBcA4-7">
          <mxGeometry relative="1" as="geometry">
            <Array as="points">
              <mxPoint x="465" y="570" />
              <mxPoint x="120" y="570" />
              <mxPoint x="120" y="230" />
            </Array>
          </mxGeometry>
        </mxCell>
        <mxCell id="z0jmMhlCUZg1NA8SBcA4-28" value="_model-&amp;gt;set(ModelData)" style="whiteSpace=wrap;html=1;rounded=0;align=left;" vertex="1" parent="1">
          <mxGeometry x="405" y="650" width="155" height="60" as="geometry" />
        </mxCell>
        <mxCell id="z0jmMhlCUZg1NA8SBcA4-34" style="edgeStyle=orthogonalEdgeStyle;rounded=0;orthogonalLoop=1;jettySize=auto;html=1;entryX=0;entryY=0.5;entryDx=0;entryDy=0;" edge="1" parent="1" source="z0jmMhlCUZg1NA8SBcA4-32" target="z0jmMhlCUZg1NA8SBcA4-31">
          <mxGeometry relative="1" as="geometry">
            <Array as="points">
              <mxPoint x="-80" y="340" />
            </Array>
          </mxGeometry>
        </mxCell>
        <mxCell id="z0jmMhlCUZg1NA8SBcA4-32" value="ViewHandler" style="swimlane;whiteSpace=wrap;html=1;" vertex="1" parent="1">
          <mxGeometry x="-230" y="20" width="250" height="150" as="geometry" />
        </mxCell>
        <mxCell id="z0jmMhlCUZg1NA8SBcA4-33" value="update" style="rounded=0;whiteSpace=wrap;html=1;align=right;" vertex="1" parent="z0jmMhlCUZg1NA8SBcA4-32">
          <mxGeometry y="30" width="220" height="20" as="geometry" />
        </mxCell>
        <mxCell id="z0jmMhlCUZg1NA8SBcA4-35" value="IView* _viewData" style="rounded=0;whiteSpace=wrap;html=1;align=right;" vertex="1" parent="z0jmMhlCUZg1NA8SBcA4-32">
          <mxGeometry y="90" width="220" height="20" as="geometry" />
        </mxCell>
        <mxCell id="z0jmMhlCUZg1NA8SBcA4-38" value="_viewData-&amp;gt;update();" style="rounded=0;whiteSpace=wrap;html=1;align=left;" vertex="1" parent="1">
          <mxGeometry x="-400" y="220" width="210" height="60" as="geometry" />
        </mxCell>
        <mxCell id="z0jmMhlCUZg1NA8SBcA4-36" style="edgeStyle=orthogonalEdgeStyle;rounded=0;orthogonalLoop=1;jettySize=auto;html=1;entryX=0.5;entryY=0;entryDx=0;entryDy=0;" edge="1" parent="1" source="z0jmMhlCUZg1NA8SBcA4-33" target="z0jmMhlCUZg1NA8SBcA4-38">
          <mxGeometry relative="1" as="geometry">
            <mxPoint x="-290" y="190" as="targetPoint" />
            <Array as="points">
              <mxPoint x="-295" y="60" />
            </Array>
          </mxGeometry>
        </mxCell>
        <mxCell id="z0jmMhlCUZg1NA8SBcA4-39" value="IView" style="swimlane;whiteSpace=wrap;html=1;" vertex="1" parent="1">
          <mxGeometry x="300" y="-60" width="200" height="150" as="geometry" />
        </mxCell>
        <mxCell id="z0jmMhlCUZg1NA8SBcA4-40" value="virtual void update() = 0" style="rounded=0;whiteSpace=wrap;html=1;align=right;" vertex="1" parent="z0jmMhlCUZg1NA8SBcA4-39">
          <mxGeometry y="30" width="190" height="20" as="geometry" />
        </mxCell>
        <mxCell id="z0jmMhlCUZg1NA8SBcA4-44" value="{&lt;br&gt;&lt;div style=&quot;&quot;&gt;&amp;nbsp; &amp;nbsp;_model = model;&lt;br&gt;&amp;nbsp; &amp;nbsp;_model-&amp;gt;assignIView(this)&lt;/div&gt;}" style="whiteSpace=wrap;html=1;align=left;rounded=0;" vertex="1" parent="1">
          <mxGeometry x="934" y="40" width="156" height="60" as="geometry" />
        </mxCell>
        <mxCell id="z0jmMhlCUZg1NA8SBcA4-45" value="" style="edgeStyle=orthogonalEdgeStyle;rounded=0;orthogonalLoop=1;jettySize=auto;html=1;" edge="1" parent="1" source="z0jmMhlCUZg1NA8SBcA4-42" target="z0jmMhlCUZg1NA8SBcA4-44">
          <mxGeometry relative="1" as="geometry" />
        </mxCell>
      </root>
    </mxGraphModel>
  </diagram>
</mxfile>
